<svg width="128" height="140" viewBox="0 0 128 140" fill="none" xmlns="http://www.w3.org/2000/svg">
<g id="icone-118x130">
<path id="arrow" d="M92.5328 54.3944V32.0639H102.93V54.3944H110.668C111.771 54.3944 111.676 55.5675 111.514 55.972L98.5779 71.0208H97.248C93.1373 66.3282 84.7951 56.7488 84.3115 55.972C83.8279 55.1953 84.3921 54.718 84.7951 54.3944H92.5328Z" fill="#0A2540"/>
<path id="lines-in" d="M35.5881 88.6182H102.93M35.709 103.303L84.0697 103.063" stroke="#0A2540" stroke-width="9" stroke-linecap="round"/>
<path id="container" d="M26.7623 134.978C14.6721 135.561 12.6571 124.379 12.9795 118.109V21.9909V19.8064C12.9795 7.96157 20.1127 4.9653 26.7623 5.0003C49.8142 5.12166 98.6708 5.00029 109.701 5.0003C119.977 5.00031 123 12.0393 123 19.8064V118.109C123 132.794 117.68 134.25 109.701 134.978H26.7623Z" stroke="#0A2540" stroke-width="9"/>
<path id="lines-out" d="M5 22.7191H19.2664M5 45.0495H19.2664M5 96.2639H19.2664M5 118.109H19.2664" stroke="#0A2540" stroke-width="10" stroke-linecap="round"/>
<path id="m" d="M42.456 71.0208H33.8955V28.3017H43.9028L56.201 45.3893L68.1375 28.3017H77.9037V71.0208H68.9815V42.2159L56.201 59.6697H55.1159L42.456 42.2159V71.0208Z" fill="#0A2540"/>
</g>
</svg>
