<svg width="50" height="54" viewBox="0 0 50 54" fill="none" xmlns="http://www.w3.org/2000/svg">
    
    <g id="icone-45x50">
        
        <path id="arrow"
            d="M36.3812 20.9978V12.4092H40.3463V20.9978H43.2972C43.7177 20.9978 43.6814 21.4491 43.6199 21.6047L38.6865 27.3926H38.1793C36.6117 25.5878 33.4303 21.9034 33.2459 21.6047C33.0615 21.3059 33.2767 21.1223 33.4303 20.9978H36.3812Z"
            fill="#0A2540" /> <!-- La fleche -->

        <path id="lines-in" d="M14.6649 34.1608H40.3463M14.7111 39.8088L33.1537 39.7164"
            stroke="#0A2540" stroke-width="3" stroke-linecap="round" /> <!-- Le 2 ligne en bas du M -->
        
        <path id="container"
            d="M11.2992 51.9916C6.68854 52.2156 5.92009 47.9151 6.04305 45.5034V8.53497V7.69478C6.04305 3.13906 8.76333 1.98665 11.2992 2.00012C20.0902 2.04679 38.7219 2.00011 42.9283 2.00012C46.8474 2.00012 48 4.70741 48 7.69476V45.5034C48 51.1514 45.9713 51.7115 42.9283 51.9916H11.2992Z"
            stroke="#0A2540" stroke-width="4" /> <!-- Le cadre -->
        
        <path id="lines-out"
            d="M3 8.81503H8.44057M3 17.4037H8.44057M3 37.1015H8.44057M3 45.5034H8.44057"
            stroke="#0A2540" stroke-width="6" stroke-linecap="round" /> <!-- Le 4 tirets -->
        
        <path id="m"
            d="M17.2841 27.3926H14.0195V10.9622H17.8358L22.5258 17.5344L27.0779 10.9622H30.8023V27.3926H27.3997V16.3138L22.5258 23.0268H22.112L17.2841 16.3138V27.3926Z"
            fill="#0A2540" /> <!-- Lettre M -->

    </g>
</svg>